<?xml version="1.0" standalone="no"?>
<!DOCTYPE svg PUBLIC "-//W3C//DTD SVG 20010904//EN"
 "http://www.w3.org/TR/2001/REC-SVG-20010904/DTD/svg10.dtd">
<svg version="1.0" xmlns="http://www.w3.org/2000/svg"
 width="570.000000pt" height="260.000000pt" viewBox="0 0 570.000000 260.000000"
 preserveAspectRatio="xMidYMid meet">
<metadata>
Created by potrace 1.16, written by Peter Selinger 2001-2019
</metadata>
<g transform="translate(0.000000,260.000000) scale(0.100000,-0.100000)"
fill="#000000" stroke="none">
<path d="M1989 2490 c-125 -20 -266 -91 -370 -188 -107 -99 -170 -212 -200
-358 -24 -121 -24 -197 0 -310 25 -113 42 -161 91 -251 74 -138 161 -239 330
-384 141 -120 425 -387 564 -528 171 -175 171 -174 -16 -174 -141 -1 -198 12
-317 73 -140 70 -220 138 -536 450 -408 402 -443 425 -655 425 -145 0 -159 -5
-364 -127 -100 -60 -125 -71 -155 -68 -20 2 -71 4 -113 4 -69 1 -80 -2 -119
-29 -54 -38 -92 -111 -97 -184 -3 -47 1 -65 25 -111 54 -102 143 -144 257
-120 37 7 67 22 96 47 60 51 80 100 80 196 0 69 3 80 24 100 38 36 199 123
270 147 175 59 341 -24 593 -298 60 -64 173 -183 253 -263 256 -258 434 -348
721 -365 101 -6 127 -4 210 16 l95 23 69 -42 c115 -69 205 -92 376 -98 148 -6
233 3 334 33 209 64 362 136 545 259 159 107 192 135 297 259 175 205 228 243
423 302 121 36 205 66 255 88 17 8 84 35 150 60 322 125 462 240 548 451 58
143 33 246 -94 380 -40 42 -85 83 -100 91 -26 13 -30 12 -56 -10 -24 -21 -26
-27 -18 -52 8 -21 26 -37 70 -58 103 -49 161 -143 151 -244 -9 -103 -98 -244
-205 -326 -111 -86 -371 -200 -489 -216 -37 -4 -132 -25 -211 -45 -79 -20
-156 -35 -170 -33 -18 2 -31 13 -43 38 -16 30 -17 61 -13 271 5 305 20 395 90
575 83 210 236 354 377 354 87 -1 146 -36 224 -135 25 -31 38 -39 59 -37 60 5
73 51 28 94 -49 45 -176 124 -227 141 -64 22 -100 21 -168 -2 -84 -29 -112
-46 -183 -112 -124 -116 -195 -273 -250 -553 -8 -43 -15 -91 -15 -107 0 -17
-8 -46 -19 -67 -12 -25 -21 -71 -26 -142 -4 -58 -8 -107 -10 -110 -2 -3 -6
-57 -9 -120 -7 -119 -24 -181 -73 -262 -13 -21 -23 -40 -23 -43 0 -14 -105
-156 -142 -191 -47 -44 -43 -42 -211 -154 -327 -218 -651 -308 -913 -254 -77
16 -204 66 -204 80 0 4 17 25 38 48 20 23 74 87 120 143 84 103 155 171 362
348 275 236 455 427 533 567 74 135 116 340 97 475 -29 208 -73 305 -195 428
-87 88 -163 137 -280 176 -62 21 -88 24 -220 24 -144 0 -153 -2 -232 -32 -104
-40 -174 -86 -263 -175 l-71 -70 -72 69 c-78 73 -161 133 -231 163 -100 45
-268 67 -377 50z m225 -141 c132 -24 269 -116 349 -236 49 -73 95 -108 127
-98 12 4 39 35 61 70 79 125 215 228 351 265 71 19 246 9 328 -19 187 -64 322
-218 355 -405 40 -232 2 -405 -125 -571 -70 -91 -322 -338 -505 -494 -222
-191 -328 -292 -412 -396 -36 -44 -69 -80 -73 -80 -4 0 -51 50 -103 110 -97
113 -213 224 -422 405 -260 224 -358 316 -416 388 -141 175 -214 410 -189 608
29 228 248 439 485 467 40 4 117 -1 189 -14z m-1890 -1390 c49 -29 70 -65 70
-124 1 -60 -26 -104 -80 -130 -126 -60 -258 91 -181 206 44 66 126 87 191 48z"/>
<path d="M203 946 c-39 -18 -73 -69 -73 -111 0 -17 11 -47 25 -67 59 -88 178
-65 214 41 29 86 -80 175 -166 137z"/>
</g>
</svg>
